<?xml version="1.0" encoding="iso-8859-1"?>
<!-- Generator: Adobe Illustrator 27.7.0, SVG Export Plug-In . SVG Version: 6.00 Build 0)  -->
<svg version="1.1" id="Layer_1" xmlns="http://www.w3.org/2000/svg" xmlns:xlink="http://www.w3.org/1999/xlink" x="0px" y="0px"
	 viewBox="0 0 595.276 743" style="enable-background:new 0 0 595.276 743;" xml:space="preserve">
<path style="fill:#6EBC56;" d="M341.673,280.072c-0.011,7.487-0.054,14.975-0.024,22.462c0.048,12.001-8.72,18.109-19.312,12.467
	c-7.54-4.016-14.143-9.805-21.117-14.867c-13.569-9.85-27.031-19.852-40.721-29.531c-2.555-1.806-5.968-2.398-9.715-3.707
	c-3.219-0.724-5.708-1.291-8.198-1.858c-18.487-2.31-34.966,5.236-51.939,10.479c-11.156,3.446-22.463,6.4-33.632,9.809
	c-8.077,2.465-18.772-3.704-15.33-15.163c4.661-15.517,10.226-30.762,15.365-46.136c2.262-6.766,5.018-13.436,6.53-20.372
	c4.064-18.635,0.047-35.752-11.066-51.216c-11.136-15.497-22.445-30.872-33.344-46.533c-3.058-4.395-4.127-9.91-1.433-14.95
	c2.688-5.029,7.512-7.112,13.2-6.967c12.431,0.317,24.864,0.619,37.292,1.027c7.103,0.233,14.209,1.08,21.298,0.926
	c23.099-0.499,41.518-10.08,55.103-28.956c10.494-14.582,21.219-28.998,31.924-43.426c4.125-5.561,9.884-7.659,16.595-6.484
	c4.677,0.819,7.112,4.513,8.481,8.663c2.186,6.626,3.99,13.377,5.991,20.064c4.229,14.134,7.547,28.629,12.941,42.304
	c8.115,20.573,23.813,33.419,45.041,39.895c15.99,4.878,31.703,10.655,47.62,15.785c6.216,2.004,11.316,5.355,12.262,11.896
	c0.993,6.874-3.566,11.67-8.866,15.334c-16.489,11.399-33.235,22.432-49.579,34.033c-12.72,9.029-19.399,22.217-23.346,36.955
	c-0.46,1.718-0.713,3.492-1.374,5.982C341.896,252.512,341.785,266.292,341.673,280.072 M270.945,271.558
	c0.899,0.48,1.797,0.96,3.193,1.442c0,0,0.497,0.003,0.592,0.672c0.97,0.775,1.94,1.549,3.408,2.327c0,0,0.497,0.003,0.598,0.686
	c2.301,1.771,4.603,3.541,7.401,5.315c0,0,0.497,0.004,0.592,0.673c0.97,0.775,1.94,1.549,3.408,2.327c0,0,0.497,0.003,0.599,0.688
	c5.82,4.527,11.493,9.264,17.516,13.504c3.603,2.536,7.563,4.845,11.701,6.281c7.916,2.746,13.027,0.092,14.879-8.072
	c1.817-8.011,2.574-16.262,3.795-25.072c0-0.443,0-0.885,0.492-1.824c-0.162-1.502-0.324-3.003-0.485-5.172
	c0-0.444,0.001-0.889,0.539-1.967c0.151-8.791,0.302-17.583,0.454-27.206c0.002-1.387,0.005-2.773,0.409-4.475
	c-0.132-0.562-0.265-1.123-0.298-2.409c0.3-1.424,0.601-2.848,1.587-4.435c0.768-1.948,1.537-3.897,2.307-6.51
	c0.002-0.443,0.004-0.886,0.627-1.445c0.456-0.631,0.912-1.263,1.371-2.557c0.002-0.442,0.005-0.885,0.678-1.466
	c3.108-4.622,6.216-9.244,9.555-14.375c0.258-0.495,0.517-0.99,1.453-1.58c1.107-1.301,2.214-2.603,3.858-4.179
	c0.82-0.576,1.64-1.153,3.081-1.842c0.461-0.628,0.921-1.256,1.879-1.886c0,0,0.497-0.003,1.193-0.099
	c6.486-4.328,13.166-8.397,19.409-13.051c7.705-5.744,15.386-11.606,22.45-18.099c7.207-6.625,5.925-14.441-2.509-19.188
	c-3.751-2.111-7.555-4.262-11.578-5.729c-13.096-4.775-26.304-9.243-40.133-13.831c-0.443-0.002-0.886-0.004-1.471-0.681
	c-3.288-1.773-6.575-3.546-10.361-5.321c0,0-0.498-0.003-0.605-0.702c-1.291-0.769-2.581-1.537-4.171-2.922
	c-6.239-7.133-12.477-14.265-18.723-22.182c-2.334-6.065-4.668-12.13-7.004-18.859c-0.002-0.443-0.004-0.885-0.023-2.11
	c-3.132-9.99-5.802-20.159-9.575-29.901c-2.165-5.59-5.832-10.692-9.358-15.632c-2.936-4.114-7.537-3.673-11.237-1.421
	c-8.232,5.009-13.96,12.522-18.804,21.228c0,0-0.003,0.498-0.681,0.593c-1.105,1.303-2.211,2.607-3.319,4.407
	c0,0-0.003,0.498-0.689,0.596c-2.102,2.636-4.205,5.272-6.31,8.405c0,0-0.003,0.497-0.624,0.612
	c-0.459,0.629-0.917,1.258-1.621,2.301c-0.202,0.258-0.453,0.454-1.338,0.898c-1.138,1.564-2.276,3.127-3.744,5.273
	c-3.89,3.806-7.78,7.611-12.34,11.509c-0.778,0.967-1.557,1.935-2.929,3.145c-0.8,0.255-1.599,0.511-3.021,0.876
	c-0.461,0.628-0.923,1.255-1.882,1.885c0,0-0.498,0.002-1.222,0.1c-5.426,2.3-10.853,4.601-16.944,6.902
	c-0.443,0.001-0.886,0.003-2.055,0.001c-1.094,0.334-2.187,0.668-3.945,1.002c-0.443,0.001-0.885,0.003-2.162-0.002
	c-2.058,0.333-4.116,0.665-6.974,0.998c-1.067,0-2.133,0-3.833-0.537c-16.178-0.133-32.382-0.877-48.525-0.193
	c-11.612,0.492-15.949,8.538-11.069,19.117c2.89,6.266,6.805,12.08,10.508,17.94c1.152,1.823,3.122,3.13,4.72,5.171
	c0,0,0.003,0.497,0.099,1.192c1.3,2.102,2.41,4.356,3.943,6.271c2.506,3.129,5.289,6.038,7.958,9.537c0,0,0.003,0.497,0.114,1.119
	c0.628,0.461,1.255,0.922,1.886,1.881c0,0,0.003,0.497,0.114,1.119c0.628,0.461,1.255,0.922,1.885,1.881
	c0,0,0.003,0.497,0.089,1.182c0.969,1.107,1.938,2.214,2.91,3.985c0.002,0.443,0.003,0.886,0.107,2.067
	c1.299,3.089,2.597,6.178,3.897,9.931c0.002,0.443,0.003,0.886,0.01,1.997c0.33,0.779,0.659,1.559,0.989,3.086
	c0.002,0.748,0.005,1.496,0.002,3.027c0.664,1.409,1.327,2.819,1.993,4.977c0,0.749-0.001,1.499-0.529,2.862
	c-0.153,3.131-0.307,6.261-0.462,10.056c0.001,0.443,0.001,0.885-0.51,1.869c-0.162,1.489-0.325,2.979-0.491,5.216
	c-0.002,0.748-0.003,1.496-0.496,2.708c-0.5,1.515-1,3.03-1.504,5.208c-0.001,0.443-0.003,0.885-0.457,1.698
	c-0.181,0.545-0.363,1.09-0.547,2.382c-0.003,0.748-0.005,1.496-0.7,2.399c-0.697,0.881-1.683,1.659-2.044,2.661
	c-2.701,7.508-5.66,14.955-7.783,22.631c-1.976,7.148-3.141,14.532-4.441,21.851c-1.234,6.95,5.632,12.738,13.968,11.074
	c11.352-2.266,22.586-5.196,33.76-8.244c5.866-1.6,11.499-4.057,17.902-6.128c0.443-0.002,0.886-0.003,2.17-0.006
	c3.722-0.667,7.444-1.333,11.915-1.997c0.749,0.001,1.499,0.002,2.999,0.005c0.751-0.001,1.502-0.001,3.052-0.004
	c1.066-0.001,2.132-0.003,3.794,0.523c3.804,0.491,7.607,0.983,12.209,1.476c1.064,0.003,2.129,0.006,3.34,0.675
	c0.953,0.442,1.907,0.883,3.608,1.327c0.748,0.003,1.495,0.007,2.387,0.684c3.288,1.772,6.575,3.544,9.86,5.318
	C270.638,271,270.64,270.998,270.945,271.558z"/>
<path style="fill:#CFE9DF;" d="M424.471,621.003c2.961,28.063,5.482,56.202,15.132,83.05c3.68,10.237,8.105,19.907,16.688,27.216
	c5.513,4.695,11.982,6.017,18.36,4.39c4.659-1.188,5.925,0.178,6.659,4c-7.304,4.291-23.039,3.124-30.428-3.779
	c-10.64-9.943-16.221-22.737-20.005-36.127c-3.985-14.104-6.712-28.624-9.059-43.113c-1.802-11.122-2.161-22.477-2.723-34.186
	C421.181,621.667,422.826,621.335,424.471,621.003z"/>
<path style="fill:#9BCA54;" d="M243.786,374.004c-12.023-28.102-14.619-56.769-4.745-86.579c2.149-0.08,3.876,0.26,5.603,0.6
	c-1.399,7.48-3.229,14.912-4.074,22.454c-0.822,7.335-1.731,14.951-0.634,22.144c1.673,10.97,4.975,21.698,7.741,32.488
	c0.552,2.152,1.806,4.123,2.419,6.543C247.78,372.68,245.783,373.342,243.786,374.004z"/>
<path style="fill:#CDE7D1;" d="M424.55,620.566c-1.723,0.769-3.368,1.1-5.379,1.434c-0.754-0.869-1.428-1.722-1.484-2.614
	c-0.419-6.717-0.795-13.439-1.034-20.165c-0.397-11.198-0.627-22.403-1.039-33.601c-0.168-4.572-0.627-9.134-0.502-14.161
	c2.42-0.792,4.388-1.123,6.356-1.454C422.522,573.38,423.575,596.755,424.55,620.566z"/>
<path style="fill:#C9E4C7;" d="M421.539,549.582c-2.038,0.755-4.006,1.086-6.353,1.421c-0.394-15.751-1.568-31.35-6.529-46.451
	c-0.4-1.217-0.681-2.474-0.749-4.255c2.032-1.125,3.795-1.707,5.558-2.289c4.955,14.236,7.844,28.797,7.235,43.964
	C420.604,544.351,421.286,546.762,421.539,549.582z"/>
<path style="fill:#C3E1BD;" d="M413.434,497.637c-1.732,0.952-3.495,1.534-5.579,2.26c-4.91-8.375-9.251-17.04-14.193-25.348
	c-2.366-3.977-5.87-7.277-8.675-11.336c2.04-1.387,3.896-2.321,5.753-3.255C401.175,470.644,408.212,483.395,413.434,497.637z"/>
<path style="fill:#A4D185;" d="M260.763,388.953c8.79,10.888,20.001,18.528,32.604,24.911c-1.595,1.829-3.186,3.039-4.778,4.25
	c-7.244-4.464-14.769-8.543-21.634-13.53c-4.537-3.296-8.127-7.897-11.976-12.383C257.017,390.806,258.89,389.879,260.763,388.953z"
	/>
<path style="fill:#BBDDAF;" d="M390.612,459.641c-1.729,1.251-3.585,2.185-5.758,3.261c-9.002-7.946-18.753-14.465-29.455-19.566
	c-1.437-0.685-3.006-1.093-4.377-2.098c1.643-1.76,3.149-3.052,4.656-4.343C368.866,441.909,380.339,449.587,390.612,459.641z"/>
<path style="fill:#7AC378;" d="M245.041,287.979c-2.124-0.295-3.851-0.635-5.964-0.955c-0.386,0.02-0.42,0.017-0.497-0.19
	c-0.213-0.479-0.428-0.649-0.723-0.719c0,0-0.217-0.08-0.256-0.53c-1.354-3.15-2.669-5.85-3.983-8.55
	c2.936-3.781,5.873-7.562,8.889-11.669c2.569,0.24,5.058,0.808,7.899,1.533c1.634,4.975,3.115,9.75,4.157,14.618
	c1.829,8.549,1.581,8.726-6.839,7.238C246.937,288.616,246.198,288.214,245.041,287.979 M240.619,271.568
	c-1.55,3.052-2.184,6.457,0.947,8.442c1.73,1.097,5.285,1.202,6.865,0.101c1.508-1.051,2.227-4.31,2.034-6.487
	C250.13,269.845,246.633,269.016,240.619,271.568z"/>
<path style="fill:#B9DA9B;" d="M355.515,436.567c-1.344,1.619-2.851,2.91-4.667,4.34c-11.547-3.873-22.785-7.885-34.159-12.327
	c0.904-1.85,1.943-3.27,2.983-4.691C331.565,428.006,343.459,432.122,355.515,436.567z"/>
<path style="fill:#B4D793;" d="M319.494,423.557c-0.861,1.753-1.901,3.174-3.155,4.932c-9.275-3.02-18.336-6.378-27.573-10.055
	c1.415-1.53,3.007-2.74,4.76-4.25C302.229,416.997,310.772,420.11,319.494,423.557z"/>
<path style="fill:#9ACC71;" d="M260.622,388.634c-1.732,1.245-3.605,2.172-5.786,3.26c-3.859-5.622-7.41-11.404-11.005-17.539
	c1.953-1.013,3.95-1.675,6.304-2.344C253.821,377.441,257.151,382.879,260.622,388.634z"/>
<path style="fill:#6EBC56;" d="M233.3,277.168c1.632,2.566,2.947,5.266,4.272,8.304c-0.485,0.365-1.054,0.565-1.462,0.391
	c-2.115-0.904-4.19-1.904-6.278-2.871C230.882,281.095,231.932,279.199,233.3,277.168z"/>
<path style="fill:#8DC768;" d="M342.042,279.839c-0.257-13.547-0.145-27.328,0.2-41.442
	C342.453,251.911,342.432,265.759,342.042,279.839z"/>
<path style="fill:#6EBC56;" d="M237.873,286.336c0.278-0.151,0.493,0.019,0.69,0.494
	C238.315,286.975,238.07,286.816,237.873,286.336z"/>
<path style="fill:#7DC15F;" d="M278.636,276.002c0,0-0.497-0.003-0.794-0.339c-1.267-1.111-2.237-1.885-3.207-2.66
	c0,0-0.497-0.003-0.819-0.338c-1.273-0.779-2.225-1.224-3.177-1.669c0,0-0.002,0.002-0.072-0.336
	c-3.358-2.111-6.646-3.882-9.934-5.654c-0.748-0.003-1.495-0.007-2.691-0.344c-1.401-0.775-2.354-1.217-3.308-1.659
	c-1.064-0.003-2.129-0.006-3.694-0.372c-4.435-0.788-8.37-1.215-12.304-1.641c-1.066,0.001-2.132,0.003-3.598-0.328
	c-0.4-0.777-0.4-1.221-0.091-1.931c5.529,0.113,10.874-0.098,15.945,0.981c13.601,2.894,24.884,10.472,35.776,18.732
	c2.417,1.833,5.301,3.052,8.176,4.677c0.465,0.325,0.661,0.576,0.851,1.187c0.688,0.769,1.318,1.226,2.198,1.684
	c0.248,0.001,0.745,0.005,0.817,0.338c1.024,0.778,1.976,1.222,2.928,1.667c0,0.001,0.001-0.001,0.073,0.333
	c1.024,0.778,1.976,1.222,2.927,1.667c0,0.001,0.001-0.001,0.073,0.333c1.024,0.778,1.976,1.222,2.928,1.667
	c-0.001,0.001,0.001-0.001,0.071,0.339c3.046,2.053,5.833,4.418,9.035,5.349c7.703,2.238,13.267-1.897,14.123-9.877
	c0.385-0.76,0.542-1.326,0.708-2.299c0.052-1.765,0.095-3.123,0.457-4.567c0.416-1.372,0.512-2.658,0.604-4.405
	c-0.004-4.154-0.003-7.846,0.38-11.656c0.794-1.794,1.491-3.457,1.57-5.149c0.417-8.949,0.116-17.968,1.109-26.845
	c2.2-19.652,11.902-35.225,27.49-47.204c10.122-7.779,20.864-14.854,30.328-23.357c12.015-10.794,10.638-17.912-4.161-24.838
	c-9.008-4.215-18.511-7.371-27.786-11.018c-6.311-2.481-12.612-4.988-19.053-7.772c-0.718-1.425-1.301-2.561-1.884-4.029
	c-0.003-0.774-0.006-1.217,0.327-1.663c0.784-0.005,1.232-0.007,1.68-0.009c0,0,0.498,0.003,0.818,0.341
	c3.608,2.111,6.895,3.885,10.183,5.658c0.443,0.002,0.886,0.004,1.744,0.351c5.412,2.414,10.401,4.504,15.409,6.548
	c9.978,4.073,20.269,7.519,29.871,12.338c10.853,5.447,11.82,13.004,2.869,21.154c-7.568,6.89-16.057,12.764-24.094,19.144
	c-4.317,3.427-8.54,6.972-12.805,10.464c0,0-0.497,0.003-1.057,0.06c-1.02,0.686-1.48,1.314-1.941,1.942
	c-0.82,0.576-1.64,1.153-3.068,1.913c-1.715,1.486-2.821,2.788-3.928,4.091c-0.258,0.495-0.517,0.99-1.236,1.79
	c-3.562,4.94-6.664,9.575-9.765,14.21c-0.003,0.442-0.005,0.885-0.318,1.718c-0.768,1.022-1.224,1.652-1.681,2.282
	c-0.002,0.443-0.004,0.886-0.349,1.743c-1.112,2.362-1.881,4.31-2.649,6.258c-0.3,1.424-0.601,2.848-1.152,4.792
	c-0.119,1.081,0.014,1.643,0.147,2.205c-0.002,1.387-0.005,2.773-0.388,4.696c-0.458,9.459-0.534,18.381-0.611,27.304
	c0,0.444-0.001,0.889-0.245,1.916c-0.084,2.083,0.077,3.584,0.237,5.085c0,0.443,0,0.885-0.367,1.769
	c-0.787,1.604-1.327,2.739-1.607,3.935c-1.425,6.098-2.423,12.324-4.261,18.291c-2.048,6.647-6.391,8.938-12.94,6.863
	c-4.183-1.325-8.205-3.427-11.982-5.708c-5.757-3.477-11.238-7.41-16.836-11.149c0,0-0.497-0.003-0.794-0.339
	c-1.267-1.111-2.237-1.885-3.207-2.66c0,0-0.497-0.004-0.795-0.349C283.24,279.541,280.938,277.772,278.636,276.002z"/>
<path style="fill:#7DC15F;" d="M167.647,178.992c-0.002-0.748-0.005-1.496,0.221-2.832c-0.256-1.448-0.739-2.307-1.223-3.167
	c-0.002-0.443-0.003-0.886,0.217-1.896c-1.259-3.745-2.739-6.924-4.219-10.102c-0.002-0.443-0.003-0.886-0.049-2.003
	c-1.014-1.781-1.983-2.888-2.952-3.996c0,0-0.003-0.497-0.06-1.057c-0.685-1.021-1.312-1.482-1.94-1.943c0,0-0.003-0.497-0.06-1.057
	c-0.685-1.021-1.312-1.482-1.94-1.943c0,0-0.003-0.497-0.052-1.093c-1.35-2.697-2.46-4.951-3.994-6.866
	c-2.506-3.13-5.288-6.039-7.954-9.041c0,0-0.003-0.497-0.053-1.094c-0.986-2.159-2.029-3.668-2.841-5.292
	c-3.541-7.093-7.272-14.109-10.413-21.378c-1.738-4.021,0.133-7.866,3.824-9.752c3.446-1.761,7.455-3.204,11.263-3.326
	c12.651-0.406,25.323-0.115,37.987-0.198c1.745-0.011,3.486-0.621,5.23-0.954c1.067,0,2.133,0,3.882,0.254
	c2.83-0.246,4.978-0.746,7.126-1.246c0.443-0.001,0.885-0.003,1.899,0.235c1.747-0.253,2.924-0.745,4.1-1.237
	c0.443-0.001,0.886-0.003,1.9,0.218c6.539-1.238,12.797-2.058,17.097-7.221c0,0,0.498-0.002,1.057-0.06
	c1.021-0.684,1.483-1.311,1.945-1.938c0.8-0.255,1.599-0.511,3.029-0.886c1.076-0.119,1.521-0.118,1.915,0.228
	c-1.078,1.366-1.955,2.629-3.154,3.371c-11.245,6.96-23.416,11.104-36.72,11.248c-13.994,0.152-28.008-0.393-41.982,0.156
	c-14.047,0.551-21.526,6.838-13.164,21.484c5.755,10.08,11.88,20.034,18.751,29.373c10.442,14.195,16.031,30.016,16.025,47.324
	c-0.003,8.773-2.558,17.68-4.859,26.287c-3.386,12.666-7.924,25.024-11.312,37.69c-2.701,10.095,2.187,15.99,12.559,15.612
	c5.257-0.192,10.575-1.11,15.685-2.408c10.789-2.741,21.379-6.295,32.214-8.807c4.797-1.112,9.992-0.505,15.007-0.345
	c0,0.778-0.001,1.223-0.001,1.667c-0.749-0.001-1.499-0.002-2.918-0.263c-4.475,0.579-8.281,1.418-12.087,2.258
	c-0.443,0.002-0.886,0.003-1.903-0.218c-8.352,1.957-16.047,4.519-23.928,6.22c-9.493,2.049-19.107,3.646-28.741,4.883
	c-4.707,0.604-8.014-2.359-8.832-7.004c-0.561-3.184-0.82-6.747,0.026-9.797c3.538-12.764,7.544-25.398,11.379-38.08
	c0.003-0.748,0.005-1.496,0.286-2.66c0.426-1.056,0.574-1.696,0.722-2.336c0.001-0.443,0.003-0.885,0.328-1.731
	c0.773-2.025,1.222-3.647,1.671-5.269c0.002-0.748,0.003-1.496,0.347-2.705c0.448-2.073,0.554-3.684,0.66-5.296
	c-0.001-0.443-0.001-0.885,0.371-1.774c0.454-3.705,0.536-6.965,0.618-10.225c0-0.749,0-1.499,0.001-3.014
	C168.973,181.811,168.31,180.402,167.647,178.992z"/>
<path style="fill:#7DC15F;" d="M249.641,58.002c0.3-0.133,0.55-0.329,1.185-0.852c0.892-0.894,1.35-1.523,1.808-2.152
	c0,0,0.003-0.497,0.348-0.795c2.447-2.934,4.549-5.569,6.652-8.205c0,0,0.003-0.498,0.343-0.794c1.446-1.6,2.551-2.903,3.656-4.206
	c0,0,0.003-0.498,0.347-0.795c4.276-4.26,8.179-8.25,12.144-12.178c9.013-8.928,16.421-7.745,22.29,3.524
	c0.23,0.441,0.49,0.875,0.657,1.34c3.513,9.812,6.956,19.65,10.571,29.424c0.629,1.701,1.972,3.138,2.985,4.696
	c0.002,0.443,0.004,0.885-0.216,1.898c1.59,6.084,3.402,11.597,4.883,17.107c-0.769-0.009-1.209-0.014-1.774-0.226
	c-0.33-0.465-0.581-0.664-0.892-1.184c-3.985-12.553-7.761-24.794-12.025-36.862c-1.813-5.131-4.22-10.17-7.116-14.773
	c-4.64-7.376-11.921-8.222-18.054-2.129c-5.646,5.609-10.728,11.784-16.109,17.663c-3.851,4.207-7.785,8.336-11.684,12.498
	c-0.002-0.002-0.003-0.003-0.003-0.378C249.639,59.5,249.64,58.751,249.641,58.002z"/>
<path style="fill:#74BE5A;" d="M366.982,188.949c3.917-3.444,8.14-6.989,12.457-10.416c8.037-6.38,16.526-12.254,24.094-19.144
	c8.952-8.15,7.984-15.708-2.869-21.154c-9.602-4.819-19.893-8.265-29.871-12.338c-5.007-2.044-9.996-4.134-15.077-6.547
	c13.082,4.242,26.29,8.709,39.385,13.485c4.023,1.467,7.827,3.618,11.578,5.729c8.435,4.747,9.717,12.564,2.509,19.188
	c-7.064,6.493-14.745,12.355-22.45,18.099C380.496,180.504,373.816,184.572,366.982,188.949z"/>
<path style="fill:#74BE5A;" d="M164.286,219.074c-3.489,12.604-7.495,25.238-11.033,38.002c-0.845,3.05-0.586,6.613-0.026,9.797
	c0.818,4.644,4.125,7.608,8.832,7.004c9.633-1.236,19.248-2.833,28.741-4.883c7.881-1.701,15.576-4.263,23.596-6.22
	c-5.496,2.294-11.128,4.751-16.995,6.351c-11.175,3.048-22.409,5.978-33.76,8.244c-8.336,1.664-15.202-4.125-13.968-11.074
	c1.299-7.319,2.464-14.704,4.441-21.851c2.122-7.675,5.082-15.122,7.783-22.631C162.257,220.811,163.243,220.033,164.286,219.074z"
	/>
<path style="fill:#74BE5A;" d="M188.321,89.732c-1.426,0.602-3.167,1.212-4.913,1.223c-12.663,0.083-25.336-0.208-37.987,0.198
	c-3.808,0.122-7.817,1.565-11.263,3.326c-3.691,1.886-5.562,5.731-3.824,9.752c3.141,7.269,6.871,14.285,10.413,21.378
	c0.811,1.625,1.854,3.133,2.839,5.044c-1.547-1.195-3.516-2.502-4.669-4.325c-3.703-5.86-7.618-11.674-10.508-17.94
	c-4.879-10.579-0.542-18.625,11.069-19.117C155.623,88.587,171.827,89.331,188.321,89.732z"/>
<path style="fill:#74BE5A;" d="M312.619,66.617c-1.004-1.167-2.347-2.604-2.976-4.305c-3.615-9.774-7.059-19.612-10.571-29.424
	c-0.167-0.465-0.427-0.899-0.657-1.34c-5.87-11.269-13.277-12.452-22.29-3.524c-3.965,3.928-7.868,7.918-12.142,11.929
	c4.498-8.159,10.226-15.672,18.458-20.681c3.701-2.252,8.301-2.692,11.237,1.421c3.526,4.94,7.193,10.042,9.358,15.632
	C306.808,46.067,309.478,56.236,312.619,66.617z"/>
<path style="fill:#74BE5A;" d="M290.687,285.345c5.547,3.397,11.028,7.33,16.785,10.807c3.776,2.281,7.798,4.382,11.982,5.708
	c6.549,2.074,10.892-0.216,12.94-6.863c1.839-5.968,2.836-12.193,4.261-18.291c0.28-1.196,0.82-2.331,1.607-3.603
	c-0.855,8.037-1.611,16.288-3.428,24.299c-1.852,8.163-6.963,10.818-14.879,8.072c-4.138-1.436-8.098-3.745-11.701-6.281
	C302.231,294.952,296.558,290.215,290.687,285.345z"/>
<path style="fill:#8DC768;" d="M315.647,85.994c0.44,0.005,0.879,0.01,1.783,0.275c1.048,0.743,1.631,1.227,2.214,1.711
	c6.239,7.133,12.477,14.265,18.984,21.987c0.844,1.408,1.419,2.226,1.995,3.044c0.003,0.442,0.007,0.885-0.333,1.61
	c-6.808-6.404-13.439-12.941-19.647-19.858C318.447,92.316,317.283,88.944,315.647,85.994z"/>
<path style="fill:#7DC15F;" d="M233.641,75.002c3.89-3.806,7.78-7.611,12.157-11.749c1.604-0.973,2.722-1.614,3.839-2.255
	c0,0,0.001,0.001-0.006,0.366c-5.337,5.787-10.667,11.21-15.996,16.257C233.637,76.5,233.639,75.751,233.641,75.002z"/>
<path style="fill:#74BE5A;" d="M338.906,263.683c-0.192-8.605-0.116-17.528,0.341-26.571
	C339.477,245.783,339.326,254.575,338.906,263.683z"/>
<path style="fill:#74BE5A;" d="M143.689,132.344c2.618,2.655,5.399,5.564,7.906,8.693c1.533,1.915,2.644,4.168,3.993,6.617
	c-2.618-2.654-5.4-5.563-7.907-8.692C146.147,137.047,145.037,134.793,143.689,132.344z"/>
<path style="fill:#74BE5A;" d="M319.641,87.588c-0.58-0.092-1.163-0.575-1.881-1.315c-1.946-5.769-3.758-11.282-5.346-17.034
	C314.97,75.065,317.304,81.13,319.641,87.588z"/>
<path style="fill:#74BE5A;" d="M224.279,81.052c-3.938,5.115-10.196,5.935-16.403,7.172
	C213.064,85.701,218.491,83.401,224.279,81.052z"/>
<path style="fill:#74BE5A;" d="M345.975,212.932c2.766-4.566,5.868-9.201,9.315-13.886
	C352.527,203.618,349.419,208.24,345.975,212.932z"/>
<path style="fill:#74BE5A;" d="M238.935,261.255c3.636,0.163,7.571,0.589,11.607,1.377
	C246.84,262.502,243.037,262.01,238.935,261.255z"/>
<path style="fill:#74BE5A;" d="M217.052,262.992c3.385-0.839,7.191-1.678,11.291-2.259
	C224.917,261.659,221.195,262.325,217.052,262.992z"/>
<path style="fill:#74BE5A;" d="M353.569,118.659c-3.216-1.436-6.504-3.209-9.863-5.319
	C346.922,114.776,350.21,116.549,353.569,118.659z"/>
<path style="fill:#74BE5A;" d="M169.37,187.308c0.182,2.953,0.101,6.213-0.353,9.586
	C168.799,193.876,168.953,190.746,169.37,187.308z"/>
<path style="fill:#74BE5A;" d="M260.706,265.344c3.216,1.435,6.504,3.206,9.863,5.316
	C267.353,269.226,264.065,267.454,260.706,265.344z"/>
<path style="fill:#74BE5A;" d="M259.291,46.047c-1.759,2.586-3.861,5.222-6.307,7.907C254.744,51.368,256.846,48.732,259.291,46.047
	z"/>
<path style="fill:#74BE5A;" d="M162.693,161.364c1.429,2.809,2.91,5.987,4.168,9.4C165.341,167.911,164.042,164.822,162.693,161.364
	z"/>
<path style="fill:#74BE5A;" d="M278.687,276.344c2.251,1.428,4.553,3.197,6.905,5.31
	C283.34,280.226,281.039,278.456,278.687,276.344z"/>
<path style="fill:#74BE5A;" d="M199.229,89.006c-1.731,0.503-3.879,1.004-6.309,1.249C194.696,89.668,196.754,89.336,199.229,89.006
	z"/>
<path style="fill:#74BE5A;" d="M340.985,224.922c0.426-1.867,1.194-3.815,2.305-5.845
	C342.865,220.944,342.097,222.892,340.985,224.922z"/>
<path style="fill:#74BE5A;" d="M249.637,60.624c-1.117,1.016-2.235,1.657-3.674,2.338c0.816-1.523,1.954-3.087,3.385-4.805
	C249.64,58.751,249.639,59.5,249.637,60.624z"/>
<path style="fill:#74BE5A;" d="M167.644,179.384c0.666,1.018,1.329,2.428,1.99,4.229
	C168.969,182.594,168.305,181.185,167.644,179.384z"/>
<path style="fill:#74BE5A;" d="M263.295,41.045c-0.766,1.256-1.872,2.559-3.316,3.91C260.745,43.699,261.851,42.396,263.295,41.045z
	"/>
<path style="fill:#74BE5A;" d="M338.876,270.753c-0.407-1.253-0.567-2.754-0.483-4.504
	C338.798,267.502,338.96,269.003,338.876,270.753z"/>
<path style="fill:#74BE5A;" d="M168.39,199.27c0.15,1.341,0.044,2.953-0.402,4.651C167.81,202.519,167.972,201.029,168.39,199.27z"
	/>
<path style="fill:#74BE5A;" d="M356.98,196.955c0.768-1.255,1.875-2.557,3.321-3.905
	C359.533,194.305,358.426,195.606,356.98,196.955z"/>
<path style="fill:#74BE5A;" d="M340.96,113.007c-0.912-0.814-1.487-1.632-2.181-2.732c1.172,0.487,2.463,1.255,3.807,2.373
	C342.192,113,341.744,113.002,340.96,113.007z"/>
<path style="fill:#74BE5A;" d="M167.393,207.232c-0.203,1.39-0.652,3.012-1.423,4.705
	C166.148,210.494,166.647,208.979,167.393,207.232z"/>
<path style="fill:#74BE5A;" d="M205.281,88.005c-0.813,0.494-1.99,0.986-3.405,1.239C202.731,88.672,203.825,88.338,205.281,88.005z
	"/>
<path style="fill:#74BE5A;" d="M233.306,75.048c0.333,0.703,0.331,1.451,0.08,2.576c-0.249,0.376-0.747,0.379-0.747,0.379
	c-0.445-0.001-0.891-0.002-1.67-0.005C231.414,77.029,232.192,76.062,233.306,75.048z"/>
<path style="fill:#74BE5A;" d="M159.684,155.339c0.926,0.765,1.895,1.872,2.907,3.321
	C161.666,157.895,160.696,156.788,159.684,155.339z"/>
<path style="fill:#74BE5A;" d="M286.683,282.338c0.922,0.44,1.892,1.215,2.91,2.324
	C288.671,284.222,287.701,283.447,286.683,282.338z"/>
<path style="fill:#74BE5A;" d="M274.683,273.338c0.922,0.44,1.892,1.215,2.91,2.324
	C276.671,275.222,275.701,274.447,274.683,273.338z"/>
<path style="fill:#74BE5A;" d="M254.709,263.338c0.88,0.109,1.833,0.551,2.86,1.325
	C256.689,264.554,255.736,264.112,254.709,263.338z"/>
<path style="fill:#74BE5A;" d="M166.648,173.328c0.481,0.525,0.964,1.385,1.22,2.458C167.31,175.221,166.98,174.441,166.648,173.328
	z"/>
<path style="fill:#74BE5A;" d="M232.012,260.999c-0.375-0.445-0.375-0.89,0.001-1.667c1.125-0.333,1.876-0.334,2.626-0.334
	c0,0.445,0,0.889,0,1.667C233.889,260.999,233.138,260.999,232.012,260.999z"/>
<path style="fill:#74BE5A;" d="M270.793,271.278c0.799,0.165,1.751,0.609,2.775,1.387
	C272.743,272.518,271.844,272.038,270.793,271.278z"/>
<path style="fill:#74BE5A;" d="M227.332,79.06c-0.151,0.572-0.612,1.199-1.385,1.882C226.098,80.371,226.56,79.743,227.332,79.06z"
	/>
<path style="fill:#74BE5A;" d="M252.325,55.055c-0.148,0.572-0.606,1.201-1.375,1.888C251.097,56.372,251.556,55.742,252.325,55.055
	z"/>
<path style="fill:#74BE5A;" d="M339.838,231.842c-0.334-0.404-0.467-0.966-0.398-1.685
	C339.774,230.562,339.907,231.123,339.838,231.842z"/>
<path style="fill:#74BE5A;" d="M343.951,216.944c0.146-0.572,0.603-1.203,1.369-1.892
	C345.174,215.623,344.718,216.255,343.951,216.944z"/>
<path style="fill:#74BE5A;" d="M165.413,214.185c0.078,0.455-0.07,1.095-0.495,1.777
	C164.824,215.46,165.005,214.915,165.413,214.185z"/>
<path style="fill:#74BE5A;" d="M363.947,190.942c0.15-0.572,0.61-1.2,1.381-1.884C365.179,189.63,364.719,190.258,363.947,190.942z"
	/>
<path style="fill:#74BE5A;" d="M155.697,149.307c0.572,0.15,1.199,0.611,1.883,1.383
	C157.008,150.541,156.381,150.079,155.697,149.307z"/>
<path style="fill:#74BE5A;" d="M157.697,152.307c0.572,0.15,1.199,0.612,1.882,1.384
	C159.008,153.541,158.381,153.079,157.697,152.307z"/>
<path style="fill:#B4D9A2;" d="M240.915,271.273c5.718-2.257,9.216-1.428,9.551,2.353c0.193,2.177-0.526,5.436-2.034,6.487
	c-1.58,1.101-5.136,0.995-6.865-0.101C238.435,278.026,239.069,274.62,240.915,271.273z"/>
<path style="fill:#9ACC71;" d="M315.521,85.788c1.761,3.156,2.926,6.529,5.122,8.975c6.208,6.916,12.839,13.453,19.646,20.189
	c0.926,1.186,1.509,2.322,2.233,4.13c0.454,5.184,2.965,7.904,7.095,9.43c2.955,1.092,5.862,2.32,8.757,3.567
	c8.514,3.666,17.321,6.805,25.422,11.233c7.045,3.851,7.5,10.491,1.777,16.124c-4.353,4.285-9.3,7.963-13.942,11.959
	c-8.633,7.432-18.116,14.11-25.659,22.523c-13.629,15.2-17.731,34.09-17.723,54.048c-4.255-1.905-8.022-4.603-12.916-1.884
	c-0.753,0.001-1.183,0.008-1.92,0.017c-0.797,0.328-1.287,0.654-2.153,0.987c-5.115,2.32-9.853,4.631-14.94,6.981
	c-5.911,2.639-7.23,7.319-7.032,12.917c-1.15-0.241-2.084-0.277-2.692-0.74c-24.739-18.873-52.167-21.951-81.569-14.191
	c-8.622,2.275-17.311,4.705-26.124,5.735c-8.274,0.967-12.189-6.345-7.947-13.546c0.591,4.242,1.534,8.091,5.74,9.451
	c4.364,1.41,8.138-0.391,11.259-3.551c1.517-1.536,3.127-3.023,4.401-4.748c14.744-19.957,22.897-41.995,22.387-67.183
	c-0.361-17.827-5.449-33.413-18.945-45.383c-9.385-8.323-19.429-15.904-29.23-24.129c-0.69-0.758-1.327-1.203-2.208-1.657
	c-0.243-0.01-0.73-0.037-0.792-0.365c-1.693-1.767-3.323-3.206-4.531-4.67c3.548-0.353,6.665-0.837,9.798-0.98
	c11.44-0.523,22.981-0.155,34.306-1.561c18.329-2.275,33.585-11.279,46.101-24.68c7.694-8.238,14.682-17.132,22.283-25.462
	c8.603-9.428,16.221-12.652,23.311,2.121c0.933,1.944,1.705,3.97,2.458,5.993c2.801,7.515,5.563,15.044,7.93,22.562
	c-2.36-0.376-4.331-0.662-6.258-1.131c-22.262-5.422-41.774,0.561-57.582,16.263c-13.248,13.159-19.151,29.706-16.945,48.947
	c1.521,13.269,6.523,24.732,15.32,34.395c12.54,13.773,28.334,20.428,47.045,19.905c-0.28,1.602-0.497,2.831-0.709,4.036
	c11.082,2.742,11.082,2.741,15.46-6.91c0.067-0.148,0.155-0.288,0.606-0.455c2.089-0.368,3.805-0.713,5.468-0.684
	c-1.077,3.455-2.102,6.537-3.249,9.988c2.75,0.503,4.862,0.783,6.919,1.287c4.029,0.986,6.311-0.43,7.128-4.556
	c0.935-4.721,2.1-9.396,3.311-14.376c0.457-1.078,0.768-1.871,1.408-2.73c15.242-10.607,25.521-37.016,21.359-54.242
	c-0.217-0.898-0.85-1.759-1.466-2.488c-4.493-5.316-8.877-10.738-13.609-15.835c-3.409-3.671-7.302-6.892-11.21-10.492
	c-0.901-1.148-1.571-2.117-2.32-3.446c-2.485-4.71-4.891-9.06-7.285-13.753c0.016-0.802,0.018-1.26,0.273-1.721
	c0.42-0.006,0.587-0.008,0.959,0.239c1.734,1.081,3.264,1.913,4.794,2.744C314.94,85.124,315.192,85.323,315.521,85.788z"/>
<path style="fill:#83C362;" d="M314.629,84.604c-1.518-0.45-3.048-1.281-4.785-2.764c-4.538-13.365-8.795-26.105-13.277-38.764
	c-0.692-1.955-2.265-3.68-3.693-5.277c-3.878-4.339-8.1-5.452-12.897-2.297c-4.499,2.958-8.641,6.671-12.312,10.635
	c-9.545,10.305-18.223,21.459-28.21,31.297C226.19,90.5,209.487,95.864,190.954,96.04c-12.447,0.118-24.894,0.549-37.335,1.001
	c-6.702,0.243-11.548,3.394-12.744,7.84c-1.288,4.788,0.907,11.286,4.913,14.423c1.053,2.091,1.962,3.878,2.875,6.038
	c1.063,2.59,1.893,4.955,3.226,6.992c3.728,5.694,7.889,11.112,11.476,16.889c12.202,19.657,14.977,40.807,8.989,63.026
	c-3.368,12.499-7.566,24.774-10.974,37.264c-2.936,10.758,1.738,17.406,12.492,16.233c10.945-1.194,21.796-3.976,32.448-6.929
	c12.84-3.559,25.743-5.194,38.861-3.047c14.348,2.349,26.816,9.242,38.389,17.749c3.903,2.869,7.39,6.305,11.068,9.481
	c-2.669-1.502-5.552-2.721-7.97-4.554c-10.893-8.26-22.176-15.838-35.776-18.732c-5.071-1.079-10.416-0.868-15.945-0.981
	c-1.059,0.265-1.81,0.266-2.935,0.266c-5.39,0.173-10.585-0.434-15.382,0.678c-10.836,2.513-21.426,6.066-32.214,8.807
	c-5.11,1.299-10.428,2.217-15.685,2.408c-10.372,0.378-15.26-5.517-12.559-15.612c3.388-12.666,7.927-25.023,11.312-37.69
	c2.301-8.606,4.855-17.513,4.859-26.287c0.007-17.308-5.582-33.129-16.025-47.324c-6.871-9.34-12.996-19.293-18.751-29.373
	c-8.362-14.647-0.883-20.933,13.164-21.484c13.974-0.549,27.988-0.004,41.982-0.156c13.304-0.145,25.475-4.288,36.72-11.248
	c1.199-0.742,2.076-2.005,3.154-3.371c0.052-0.345,0.549-0.348,0.798-0.349c5.578-5.424,10.908-10.846,16.247-16.631
	c3.907-4.527,7.842-8.657,11.692-12.863c5.381-5.879,10.463-12.054,16.109-17.663c6.134-6.094,13.414-5.247,18.054,2.129
	c2.896,4.603,5.304,9.642,7.116,14.773C306.868,59.81,310.644,72.051,314.629,84.604z"/>
<path style="fill:#8DC768;" d="M328.61,248.029c-0.369-20.021,3.733-38.911,17.362-54.111c7.544-8.413,17.026-15.091,25.659-22.523
	c4.642-3.996,9.589-7.674,13.942-11.959c5.723-5.633,5.268-12.273-1.777-16.124c-8.1-4.428-16.907-7.567-25.422-11.233
	c-2.895-1.246-5.802-2.475-8.757-3.567c-4.13-1.526-6.642-4.245-6.96-9.141c6.3,2.112,12.601,4.619,18.912,7.1
	c9.275,3.646,18.778,6.803,27.786,11.018c14.799,6.925,16.176,14.043,4.161,24.838c-9.465,8.503-20.207,15.579-30.328,23.357
	c-15.588,11.979-25.29,27.553-27.49,47.204c-0.994,8.878-0.692,17.897-1.109,26.845c-0.079,1.692-0.776,3.356-1.596,4.742
	C331.26,258.8,329.935,253.415,328.61,248.029z"/>
<path style="fill:#8DC768;" d="M294.846,283.123c-3.884-3.299-7.371-6.735-11.275-9.604c-11.573-8.507-24.041-15.4-38.389-17.749
	c-13.118-2.147-26.022-0.513-38.861,3.047c-10.652,2.953-21.504,5.736-32.448,6.929c-10.754,1.173-15.428-5.475-12.492-16.233
	c3.408-12.489,7.605-24.765,10.974-37.264c5.988-22.219,3.213-43.369-8.989-63.026c-3.586-5.778-7.748-11.195-11.476-16.889
	c-1.333-2.036-2.163-4.402-2.934-6.832c3.754,3.022,7.219,6.259,10.693,9.869c1.459,3.121,2.682,6.021,4.396,8.593
	c11.77,17.665,16.576,36.915,13.708,58.04c-0.357,2.632-0.02,5.359-0.019,8.445c-1.346,5.132-2.678,9.862-4.367,14.655
	c-5.073,8.923-8.168,18.203-7.726,28.405c0.243,5.61,3.14,9.013,8.815,8.333c8.982-1.076,18.047-2.478,26.705-5.013
	c15.87-4.647,31.809-6.425,48.132-3.781c13.772,2.231,25.502,9.061,36.792,16.839c1.971,1.358,4.379,2.081,6.875,3.265
	c0.806,0.811,1.313,1.461,1.839,2.096c8.019,9.68,16.54,18.38,30.775,16.098c-2.715,4.173-6.249,4.883-10.459,3.322
	c-2.48-0.92-4.982-1.78-7.474-2.667c0,0-0.001,0.001-0.154-0.279c-1.05-0.761-1.948-1.241-2.846-1.721c0,0-0.001,0.001-0.154-0.279
	c-1.051-0.76-1.948-1.241-2.846-1.721c0,0-0.001,0.001-0.154-0.279c-1.051-0.76-1.948-1.241-2.846-1.721
	c0,0-0.497-0.004-0.804-0.315c-0.937-0.769-1.566-1.227-2.196-1.686C295.506,283.699,295.311,283.448,294.846,283.123z"/>
<path style="fill:#A4D185;" d="M325.641,291.009c-14.304,2.617-22.825-6.083-30.844-15.763c-0.526-0.635-1.033-1.285-1.893-2.437
	c-1.312-2.278-2.28-4.047-3.249-5.817c-0.566-5.604,0.753-10.285,6.609-12.577c-2.433,4.34-6.473,8.095-3.431,13.638
	c5.269,9.598,12.496,17.165,23.226,20.505c5.748,1.789,11.865-1.698,13.282-7.424c2.191-8.855,1.807-17.748-0.707-26.492
	c-1.37-4.763-4.448-7.643-9.735-7.677c-1.083-0.007-2.163-0.569-3.244-0.876c4.571-2.726,8.338-0.028,12.593,1.877
	c1.686,5.448,3.011,10.834,4.362,16.626c0.025,4.1,0.025,7.793-0.222,12.201c-0.388,1.889-0.531,3.063-0.674,4.237
	c-0.043,1.358-0.085,2.716-0.44,4.56c-0.763,1.123-1.214,1.759-1.826,2.679C328.073,289.371,326.857,290.19,325.641,291.009z"/>
<path style="fill:#83C362;" d="M325.572,291.344c1.284-1.154,2.5-1.973,4.135-3.069c0.59-0.275,0.762-0.272,0.934-0.27
	c-0.628,7.786-6.193,11.92-13.896,9.683c-3.203-0.931-5.989-3.296-9.035-5.349c2.421,0.547,4.923,1.408,7.403,2.327
	C319.323,296.227,322.857,295.517,325.572,291.344z"/>
<path style="fill:#8DC768;" d="M332.035,280.944c-0.177-1.088-0.034-2.262,0.358-3.69
	C332.547,278.286,332.45,279.573,332.035,280.944z"/>
<path style="fill:#83C362;" d="M304.711,290.332c0.826,0.147,1.724,0.627,2.775,1.387
	C306.687,291.554,305.735,291.11,304.711,290.332z"/>
<path style="fill:#83C362;" d="M301.711,288.332c0.826,0.147,1.724,0.627,2.775,1.387
	C303.687,289.554,302.735,289.11,301.711,288.332z"/>
<path style="fill:#83C362;" d="M298.711,286.332c0.826,0.147,1.724,0.627,2.775,1.387
	C300.687,287.554,299.735,287.11,298.711,286.332z"/>
<path style="fill:#8DC768;" d="M330.869,287.81c-0.4,0.192-0.571,0.19-1.001,0.182c0.193-0.642,0.645-1.279,1.398-1.994
	C331.411,286.484,331.254,287.05,330.869,287.81z"/>
<path style="fill:#83C362;" d="M295.696,284.31c0.573,0.147,1.202,0.605,1.891,1.374
	C297.015,285.536,296.384,285.078,295.696,284.31z"/>
<path style="fill:#A4D185;" d="M308.636,82.005c-0.003,0.458-0.006,0.916-0.359,1.763c-0.444,1.647-0.83,2.97-0.566,4.148
	c0.466,2.074,1.329,4.059,1.651,6.074c-2.806-1.015-5.237-2.023-7.827-3.335c-1.29-2.415-2.422-4.525-3.554-6.635
	c-0.456,0.323-0.913,0.646-1.836,0.972c-3.963,0.005-7.461,0.077-10.956-0.003c-32.765-0.743-59.059,30.605-52.582,62.854
	c2.414,12.018,7.812,22.307,16.926,30.309c11.354,9.968,25.07,13.904,39.909,14.175c-0.94,2.105-1.758,3.892-2.576,5.68
	c-18.774,0.897-34.568-5.758-47.108-19.531c-8.797-9.663-13.799-21.126-15.32-34.395c-2.206-19.241,3.698-35.788,16.945-48.947
	c15.809-15.703,35.32-21.685,57.582-16.263c1.927,0.469,3.898,0.755,6.33,1.464C306.73,81.117,307.683,81.561,308.636,82.005z"/>
<path style="fill:#B4D793;" d="M173.723,225.039c1.332-4.729,2.663-9.459,4.253-14.867c2.072-8.838,3.886-16.998,5.959-25.481
	c0.472-4.755-0.206-9.469,1.085-13.561c2.626-8.323-7.486-25.083-15.576-28.418c-3.063-2.76-5.918-5.265-8.826-8.109
	c-2.002-2.568-4.231-4.614-5.835-7.068c-2.84-4.346-6.154-8.665-7.711-13.498c-2.124-6.593,3.423-11.347,10.009-9.333
	c2.21,0.676,4.367,1.529,6.547,2.301c0,0,0.486,0.027,0.797,0.34c0.938,0.765,1.566,1.216,2.194,1.667
	c9.749,7.912,19.793,15.493,29.178,23.816c13.496,11.97,18.584,27.555,18.945,45.383c0.51,25.189-7.642,47.226-22.387,67.183
	c-1.275,1.725-2.884,3.213-4.401,4.748c-3.121,3.16-6.895,4.961-11.259,3.551c-4.206-1.359-5.149-5.208-5.748-9.866
	C171.706,237.096,172.715,231.068,173.723,225.039 M187.151,169.607c0.174,4.801,0.348,9.602,0.511,15.148
	c-0.028,0.744-0.057,1.488-0.808,2.441c-0.643,2.143-1.413,4.258-1.909,6.435c-3.055,13.389-6.105,26.779-9.033,40.195
	c-1.162,5.323,0.576,11.321,3.904,12.493c4.715,1.661,7.637-1.851,10.656-4.656c0.243-0.226,0.5-0.448,0.694-0.714
	c11.972-16.399,20.354-34.138,20.469-55.786c-0.002-1.386-0.004-2.773,0.009-5.09c0.897-13.074-2.215-25.04-10.029-35.641
	c-10.466-14.199-25.979-22.437-39.456-33.065c-2.484-1.959-6.584-4.324-8.747-0.608c-1.499,2.575-0.487,6.733-0.208,10.152
	c0.093,1.144,1.253,2.323,2.161,3.258c3.707,3.817,7.208,7.914,11.328,11.234c9.841,7.928,18.473,16.558,20.984,30.398
	C187.69,166.866,187.702,167.932,187.151,169.607z"/>
<path style="fill:#8DC768;" d="M308.888,82.002c-1.205-0.441-2.158-0.885-3.183-1.662c-2.848-7.857-5.611-15.386-8.411-22.9
	c-0.754-2.023-1.526-4.049-2.458-5.993c-7.09-14.774-14.708-11.55-23.311-2.121c-7.601,8.33-14.589,17.224-22.283,25.462
	c-12.516,13.401-27.772,22.405-46.101,24.68c-11.325,1.405-22.866,1.038-34.306,1.561c-3.133,0.143-6.25,0.627-10.247,0.974
	c-2.863,0.019-4.857-0.067-6.843,0.034c-5.536,0.28-8.819,4.276-7.901,9.75c0.409,2.437,1.189,4.811,1.8,7.213
	c-3.862-2.832-6.057-9.33-4.769-14.118c1.196-4.446,6.042-7.596,12.744-7.84c12.441-0.452,24.888-0.883,37.335-1.001
	c18.532-0.176,35.236-5.54,48.502-18.607c9.987-9.838,18.665-20.992,28.21-31.297c3.671-3.963,7.813-7.676,12.312-10.635
	c4.797-3.155,9.019-2.042,12.897,2.297c1.428,1.597,3.001,3.322,3.693,5.277c4.482,12.66,8.739,25.399,13.073,38.515
	C309.476,81.994,309.308,81.996,308.888,82.002z"/>
<path style="fill:#A4D185;" d="M318.451,101.101c3.677,3.422,7.57,6.643,10.978,10.314c4.732,5.097,9.116,10.519,13.609,15.835
	c0.616,0.729,1.249,1.59,1.466,2.488c4.162,17.225-6.117,43.635-21.361,53.844c0.933-6.752,2.198-13.171,3.815-19.639
	c1.409-1.237,2.734-2.279,3.479-3.638c4.873-8.896,6.329-18.633,4.961-28.437c-1.263-9.048-6.19-16.467-13.959-22.174
	C320.334,106.62,319.393,103.86,318.451,101.101z"/>
<path style="fill:#94C96D;" d="M173.366,225.103c-0.651,5.965-1.66,11.993-2.661,18.437c-3.992,7.905-0.077,15.217,8.197,14.25
	c8.813-1.03,17.502-3.46,26.124-5.735c29.403-7.759,56.83-4.681,81.569,14.191c0.608,0.464,1.542,0.499,2.692,0.74
	c1.336,1.775,2.304,3.544,3.327,5.655c-2.152-0.675-4.56-1.398-6.531-2.755c-11.29-7.777-23.02-14.608-36.792-16.839
	c-16.323-2.644-32.262-0.866-48.132,3.781c-8.658,2.535-17.723,3.937-26.705,5.013c-5.675,0.68-8.572-2.724-8.815-8.333
	C165.198,243.306,168.292,234.026,173.366,225.103z"/>
<path style="fill:#B9DA9B;" d="M315.333,246.083c1.404,0.313,2.483,0.875,3.566,0.882c5.287,0.034,8.365,2.913,9.735,7.677
	c2.514,8.744,2.898,17.637,0.707,26.492c-1.417,5.726-7.534,9.213-13.282,7.424c-10.73-3.34-17.957-10.908-23.226-20.505
	c-3.043-5.542,0.997-9.297,3.779-13.677c4.794-2.658,9.532-4.969,14.837-7.104c1.135-0.274,1.703-0.724,2.271-1.174
	C314.15,246.091,314.58,246.084,315.333,246.083 M310.931,283.564c8.841,3.795,14.493,1.784,16.03-6.682
	c0.987-5.439,0.912-11.328-0.006-16.793c-1.24-7.381-5.48-10.127-12.901-8.924c-3.834,0.621-7.684,2.207-11.101,4.119
	c-7.24,4.05-8.658,11.828-3.245,18.074C302.833,276.964,306.747,279.887,310.931,283.564z"/>
<path style="fill:#D6E9C7;" d="M326.605,163.992c-1.265,6.42-2.529,12.839-3.791,19.656c-0.308,1.191-0.619,1.984-1.428,3.113
	c-2.663,1.482-4.747,2.846-7.023,3.698c-1.448,0.542-3.18,0.324-4.761,0.064c1.312-5.084,2.6-9.785,3.991-14.862
	c0.457-2.15,0.811-3.923,1.538-5.69c2.592-1.396,4.823-2.778,7.023-4.207c1.399-0.909,2.753-1.888,4.206-2.569
	C326.495,163.638,326.55,163.815,326.605,163.992z"/>
<path style="fill:#D1E6BD;" d="M286.804,198.381c0.881-2.161,1.699-3.949,2.8-6.356c0.884-2.085,1.485-3.55,2.305-5.19
	c0.685-0.757,1.15-1.34,1.845-1.658c4.278,3.422,7.326-1.045,10.941-0.75c-0.974,3.81-1.941,7.23-2.908,10.649
	c-0.078,0.144-0.166,0.283-0.233,0.431c-4.378,9.651-4.378,9.651-15.46,6.91C286.307,201.211,286.524,199.983,286.804,198.381z"/>
<path style="fill:#D6E9C7;" d="M318.219,100.922c1.173,2.938,2.115,5.697,3.232,9.165c1.285,4.884,2.152,9.144,3.581,13.208
	c1.114,3.168,0.133,5.092-2.837,6.67c-1.754-1.261-3.371-2.356-4.404-3.854c-0.759-1.101-0.756-2.729-1.105-4.564
	c-1.032-5.473-2.05-10.502-3.115-15.903c-0.63-2.789-1.213-5.207-1.379-7.631c1.54-0.063,2.664-0.12,3.787-0.177
	C316.648,98.805,317.318,99.775,318.219,100.922z"/>
<path style="fill:#D1E6BD;" d="M309.579,190.906c1.604-0.123,3.336,0.095,4.784-0.447c2.275-0.852,4.359-2.216,6.876-3.413
	c-0.713,4.644-1.878,9.32-2.813,14.041c-0.818,4.126-3.099,5.542-7.128,4.556c-2.057-0.504-4.169-0.784-6.919-1.287
	c1.147-3.451,2.171-6.533,3.475-10.195C308.616,192.689,309.098,191.797,309.579,190.906z"/>
<path style="fill:#A4D185;" d="M145.788,119.304c-0.755-2.708-1.535-5.082-1.944-7.519c-0.918-5.474,2.365-9.469,7.901-9.75
	c1.985-0.101,3.98-0.015,6.419-0.008c2.079,1.445,3.71,2.884,5.403,4.65c-2.119-0.444-4.275-1.298-6.485-1.974
	c-6.586-2.014-12.133,2.74-10.009,9.333c1.557,4.833,4.871,9.152,7.711,13.498c1.604,2.454,3.834,4.5,5.577,7.087
	c-0.377,0.363-0.55,0.37-0.722,0.376c-3.465-3.237-6.93-6.474-10.686-9.87C147.75,123.181,146.841,121.395,145.788,119.304z"/>
<path style="fill:#A9D38E;" d="M309.603,190.523c-0.505,1.275-0.987,2.166-1.695,3.265c-1.943,0.551-3.659,0.896-5.748,1.264
	c0.595-3.395,1.562-6.815,2.679-10.949c1.001-2.856,1.852-4.998,3.087-7.139c2.111-0.309,3.838-0.618,5.566-0.927
	C312.203,180.737,310.914,185.438,309.603,190.523z"/>
<path style="fill:#D1E6BD;" d="M315.9,97.476c-1.044,0.416-2.167,0.474-3.875,0.247c-1.152-1.431-1.72-2.578-2.288-3.725
	c-0.697-2.022-1.56-4.008-2.026-6.082c-0.264-1.177,0.122-2.501,0.553-3.804C311.008,88.417,313.414,92.767,315.9,97.476z"/>
<path style="fill:#A4D185;" d="M166.568,108.7c-0.576-0.138-1.203-0.589-1.898-1.344C165.24,107.497,165.878,107.942,166.568,108.7z
	"/>
<path style="fill:#A4D185;" d="M313.412,246.1c-0.26,0.448-0.829,0.898-1.587,1.164C312.125,246.754,312.615,246.428,313.412,246.1z
	"/>
<path style="fill:#94C96D;" d="M159.647,135.371c0.163-0.379,0.336-0.385,0.767-0.41c3.113,2.486,5.968,4.991,9.035,8.131
	c0.691,2.031,0.898,3.61,1.691,4.795c5.852,8.748,8.079,18.746,10.242,28.793c0.605,2.813,1.521,5.559,2.294,8.335
	c-1.814,8.16-3.627,16.32-5.685,24.755c-0.26-2.408-0.597-5.134-0.24-7.766c2.868-21.125-1.938-40.375-13.708-58.04
	C162.329,141.391,161.107,138.492,159.647,135.371z"/>
<path style="fill:#A9D38E;" d="M291.689,187.009c-0.601,1.465-1.201,2.93-1.964,4.698c-15.122,0.348-28.838-3.588-40.192-13.555
	c-9.114-8.002-14.512-18.291-16.926-30.309c-6.477-32.249,19.817-63.597,52.582-62.854c3.495,0.079,6.992,0.008,11.106,0.323
	c1.184,2.105,1.752,3.893,1.882,5.684c-1.926-0.094-3.44-0.05-4.901-0.308c-28.023-4.944-55.506,15.376-56.537,45.971
	c-0.795,23.573,14.664,43.072,37.741,48.394C280.069,186.342,285.945,186.39,291.689,187.009z"/>
<path style="fill:#ADD594;" d="M309.362,93.99c0.944,1.156,1.511,2.303,2.246,3.74c0.75,2.707,1.333,5.126,1.732,8.15
	c-2.315,0.1-4.446-0.405-6.761-1.23c-1.83-4.712-3.476-9.106-5.063-13.546c0.06-0.047,0.177-0.143,0.177-0.143
	C304.125,91.967,306.556,92.974,309.362,93.99z"/>
<path style="fill:#B0D79A;" d="M298.615,90.993c-0.567-1.788-1.135-3.577-1.852-5.685c0.306-0.643,0.762-0.966,1.219-1.289
	c1.132,2.11,2.263,4.22,3.554,6.635c0.159,0.305,0.041,0.402-0.319,0.413c-0.765-0.015-1.17-0.041-1.832-0.067
	C298.957,90.999,298.786,90.996,298.615,90.993z"/>
<path style="fill:#C7E1AE;" d="M187.709,165.002c-2.543-13.041-11.174-21.671-21.016-29.599c-4.12-3.319-7.622-7.417-11.328-11.234
	c-0.908-0.935-2.067-2.114-2.161-3.258c-0.279-3.419-1.29-7.577,0.208-10.152c2.163-3.716,6.263-1.351,8.747,0.608
	c13.477,10.628,28.99,18.866,39.456,33.065c7.814,10.601,10.926,22.568,9.653,36.106c-1.116,0.456-1.855,0.448-2.601,0.014
	c-0.011-2.135-0.015-3.844,0.228-5.805c0.408-1.414,0.569-2.576,0.734-4.101c-0.328-1.457-0.66-2.552-0.993-3.978
	c-0.005-0.775-0.008-1.217-0.052-2.006c-0.675-1.785-1.31-3.224-1.98-4.979c-0.346-1.105-0.658-1.892-1.013-3.029
	c-1.344-2.453-2.645-4.556-4.062-6.914c-0.375-0.749-0.634-1.243-0.939-2.078c-1.676-1.785-3.308-3.229-4.944-4.668
	c-0.005,0.004,0.004-0.006-0.044-0.348c-1.878-2.449-3.413-4.943-5.589-6.594c-7.768-5.894-15.639-11.673-23.744-17.086
	c-1.814-1.211-4.738-0.76-7.151-1.075c0.661,2.358,0.637,5.334,2.106,6.963c5.414,6.001,11.347,11.533,17.035,17.29
	c2.193,2.22,4.254,4.571,6.379,7.109c0.004,0.247,0.011,0.741,0.065,1.052c0.676,0.778,1.298,1.246,1.924,2.043
	c0.009,0.769,0.015,1.208,0.074,1.958c0.67,0.783,1.287,1.256,1.907,2.056c0.005,0.765,0.008,1.202-0.188,1.803
	c-0.039,0.727,0.121,1.29,0.276,2.272c0.028,1.816,0.061,3.212-0.177,4.598C188.067,165.016,187.888,165.009,187.709,165.002z"/>
<path style="fill:#C7E1AE;" d="M211.629,185.995c-0.109,20.817-8.491,38.556-20.463,54.955c-0.194,0.266-0.451,0.488-0.694,0.714
	c-3.019,2.805-5.942,6.317-10.656,4.656c-3.328-1.173-5.066-7.17-3.904-12.493c2.928-13.417,5.979-26.807,9.033-40.195
	c0.497-2.177,1.266-4.291,2.54-6.281c0.785,1.634,0.939,3.114,0.741,4.713c-2.418,8.416-4.694,16.667-6.472,25.025
	c-1.098,5.162-1.755,10.474-1.964,15.744c-0.087,2.198,1.004,5.826,2.457,6.359c1.92,0.705,5.515-0.228,7.01-1.784
	c7.686-7.997,13.49-17.189,15.515-28.697c0.379-1.099,0.627-1.906,1.116-2.945c0.754-2.081,1.269-3.929,1.779-6.145
	c0.004-1.106,0.012-1.843,0.372-2.69c0.751-1.734,1.151-3.359,1.554-5.408c0-2.127-0.002-3.829,0.337-5.527
	C210.723,185.997,211.176,185.996,211.629,185.995z"/>
<path style="fill:#E2EFD4;" d="M188.579,191.944c-0.154-1.48-0.309-2.96-0.732-4.698c-0.241-1.002-0.212-1.746,0.2-2.98
	c0.794-5.427,1.204-10.364,1.614-15.653c-0.291-1.423-0.583-2.495-0.874-3.567c-0.032-1.397-0.065-2.793,0.208-4.67
	c0.74-1.107,1.175-1.733,1.619-2.788c-0.266-2.558-0.631-4.68-0.793-6.817c-0.245-3.228,1.466-4.379,4.338-3.308
	c4.492,1.675,10.916,13.257,10.24,18.325c-1.511-2.545-2.496-5.068-4.088-7.121c-1.054-1.36-2.976-2.046-4.509-3.034
	c-0.721,1.731-1.883,3.41-2.091,5.201c-1.487,12.776-2.671,25.588-4.231,38.355c-0.288,2.355-1.846,4.555-2.824,6.402
	C187.293,200.758,187.936,196.351,188.579,191.944z"/>
<path style="fill:#9ACC71;" d="M183.936,184.692c-1.033-2.454-1.948-5.2-2.554-8.012c-2.163-10.047-4.39-20.045-10.242-28.793
	c-0.793-1.186-1-2.764-1.482-4.54c7.877,2.701,17.989,19.461,15.363,27.784C183.729,175.222,184.408,179.936,183.936,184.692z"/>
<path style="fill:#C7E1AE;" d="M189.661,168.964c-0.41,4.937-0.82,9.874-1.609,14.929c-0.552-4.684-0.727-9.485-0.296-14.598
	C188.794,168.977,189.228,168.971,189.661,168.964z"/>
<path style="fill:#D1E6BD;" d="M211.632,185.579c-0.456,0.417-0.909,0.418-1.95,0.142c-0.728-1.766-0.868-3.255-1.008-4.743
	c0.739,0.008,1.478,0.016,2.587,0.026C211.631,182.391,211.633,183.778,211.632,185.579z"/>
<path style="fill:#D6E9C7;" d="M189.661,168.613c-0.433,0.358-0.866,0.365-1.623,0.378c-0.336-1.059-0.348-2.124-0.345-3.59
	c0.195-0.392,0.374-0.385,0.823-0.367C189.078,166.118,189.369,167.189,189.661,168.613z"/>
<path style="fill:#ADD594;" d="M322.584,129.958c2.582-1.572,3.563-3.496,2.449-6.663c-1.429-4.063-2.296-8.324-3.418-12.892
	c7.593,4.999,12.519,12.418,13.782,21.466c1.368,9.803-0.088,19.541-4.961,28.437c-0.745,1.36-2.069,2.401-3.479,3.638
	c-0.408-0.129-0.463-0.306-0.508-1.186c0.122-8.574,0.358-16.448,0.205-24.314c-0.021-1.079-1.968-2.121-3.02-3.584
	C323.287,132.956,322.935,131.457,322.584,129.958z"/>
<path style="fill:#D1E6BD;" d="M310.619,283.341c-3.871-3.454-7.785-6.377-10.911-9.984c-5.414-6.246-3.995-14.024,3.245-18.074
	c3.417-1.911,7.267-3.497,11.101-4.119c7.421-1.203,11.661,1.543,12.901,8.924c0.918,5.466,0.993,11.354,0.006,16.793
	C325.424,285.348,319.772,287.36,310.619,283.341 M301.664,265.578c1.495,3.067,2.465,6.572,4.588,9.115
	c5.579,6.684,13.321,6.873,16.371,0.545c1.136-2.357,0.978-5.455,0.988-8.217c0.036-10.168-7.299-14.481-16.012-9.151
	C305.138,259.374,303.635,262.447,301.664,265.578z"/>
<path style="fill:#E2EFD4;" d="M323.631,135.263c1.055,1.059,3.003,2.101,3.024,3.18c0.152,7.866-0.083,15.739-0.284,24.047
	c-1.463,1.384-2.816,2.363-4.216,3.272c-2.2,1.429-4.431,2.811-7.045,3.817c0.245-3.79,0.885-7.184,1.79-10.88
	c0.751-4.557,1.709-8.825,1.596-13.065C318.372,141.027,318.788,137.187,323.631,135.263z"/>
<path style="fill:#B0D79A;" d="M316.635,159.002c-0.64,3.394-1.28,6.789-1.898,10.573c-0.332,2.163-0.687,3.936-1.143,6.086
	c-1.83,0.685-3.557,0.994-5.656,0.892c0.649-5.126,1.67-9.84,3.033-14.6C313.087,160.939,314.861,159.97,316.635,159.002z"/>
<path style="fill:#ADD594;" d="M298.178,90.995c0.608,0,0.779,0.003,1.243,0.37c0.339,1.095,0.384,1.827,0.042,2.722
	c-2.654,0.21-4.96,0.549-7.183,0.257c-15.054-1.977-29.008,1.133-39.391,12.272c-18.716,20.08-16.754,52.291,7.371,68.786
	c10.176,6.958,21.56,8.147,33.389,7.916c-0.043,0.745-0.085,1.169-0.126,1.593c-0.465,0.583-0.93,1.165-1.615,1.922
	c-5.964-0.445-11.84-0.493-17.429-1.782c-23.076-5.323-38.536-24.821-37.741-48.394c1.032-30.595,28.514-50.915,56.537-45.971
	C294.738,90.945,296.252,90.901,298.178,90.995z"/>
<path style="fill:#E2EFD4;" d="M293.755,185.177c-0.189-0.689-0.147-1.113-0.033-2.189c0.657-2.092,1.241-3.533,1.874-5.334
	c0.688-2.117,1.328-3.874,2.131-5.973c0.743-2.79,1.324-5.237,2.162-7.959c0.74-3.083,1.223-5.892,1.777-9.097
	c1.54-6.076,0.54-13.301,9.346-14.512c0.653,2.266,1.284,4.447,1.151,6.58c-0.32,5.113-0.999,10.204-1.533,15.304
	c-1.021,4.714-2.042,9.429-3.075,14.554c-0.863,2.552-1.714,4.694-2.708,7.16C301.081,184.132,298.033,188.599,293.755,185.177z"/>
<path style="fill:#BBDDAF;" d="M310.971,161.953c0.192-5.055,0.872-10.146,1.191-15.26c0.133-2.133-0.498-4.314-1.305-6.928
	c-0.732-2.202-0.941-3.949-0.778-5.825c0.773-1.762,1.629-3.437,1.485-5.02c-0.365-4.006-1.18-7.97-1.481-11.891
	c2.428,1.694,4.523,3.327,6.617,4.961c0.336,1.393,0.332,3.02,1.092,4.121c1.033,1.498,2.65,2.593,4.404,3.854
	c0.74,1.492,1.091,2.991,1.439,4.894c-4.847,2.327-5.263,6.168-5.139,10.776c0.113,4.24-0.845,8.508-1.596,13.065
	C314.861,159.97,313.087,160.939,310.971,161.953z"/>
<path style="fill:#B4D9A2;" d="M316.687,121.546c-2.081-1.19-4.175-2.824-6.656-4.907c-1.347-4.19-2.308-7.931-3.268-11.672
	c2.131,0.506,4.263,1.012,6.625,1.282C314.637,111.044,315.655,116.074,316.687,121.546z"/>
<path style="fill:#E2EFD4;" d="M306.579,104.649c1.144,4.06,2.105,7.801,3.117,11.931c0.687,4.37,1.502,8.334,1.867,12.34
	c0.144,1.583-0.712,3.258-1.821,5.141c-1.964,0.702-3.22,1.154-5.094,1.827c0-4.161,0-7.522,0.003-11.338
	c-0.029-3.497-0.061-6.539-0.094-9.967c-0.576-2.801-1.151-5.216-1.762-8.031c-0.403-2.45-0.77-4.499-1.25-6.892
	c-0.641-2.141-1.169-3.938-1.696-5.736c-0.045-0.731-0.09-1.462-0.172-2.558c0.368-0.338,0.774-0.312,1.479-0.251
	C303.103,95.544,304.75,99.937,306.579,104.649z"/>
<path style="fill:#D1E6BD;" d="M184.633,149.006c-2.121-2.291-4.182-4.642-6.375-6.862c-5.688-5.757-11.62-11.289-17.035-17.29
	c-1.469-1.629-1.445-4.605-2.106-6.963c2.413,0.314,5.337-0.137,7.151,1.075c8.105,5.413,15.976,11.192,23.744,17.086
	c2.176,1.651,3.711,4.145,5.245,6.551c-1.831-0.929-3.295-2.262-4.915-3.364c-4.78-3.249-9.622-6.407-14.44-9.6
	c-0.57,0.583-1.141,1.166-1.711,1.75c1.471,2.358,2.99,4.688,4.401,7.082C180.646,141.958,182.623,145.492,184.633,149.006z"/>
<path style="fill:#D6E9C7;" d="M184.637,149.253c-2.014-3.761-3.991-7.295-6.046-10.783c-1.411-2.394-2.93-4.724-4.401-7.082
	c0.57-0.583,1.141-1.166,1.711-1.75c4.818,3.193,9.66,6.351,14.44,9.6c1.621,1.102,3.084,2.435,4.964,3.706
	c0.344,0.043,0.335,0.053,0.382,0.391c1.681,1.781,3.314,3.224,4.947,4.667c0.26,0.494,0.519,0.988,0.902,2.11
	c1.448,2.715,2.773,4.803,4.098,6.89c0.311,0.788,0.623,1.575,0.751,2.905c0.624,2.061,1.431,3.581,2.239,5.1
	c0.004,0.443,0.007,0.885-0.197,1.785c-0.466,0.662-0.663,0.916-1.169,1.214c-1.111-0.014-1.851-0.024-2.593-0.361
	c-0.001-0.763,0-1.2,0.001-1.636c0.408-5.289-6.016-16.871-10.508-18.546c-2.872-1.071-4.582,0.08-4.338,3.308
	c0.162,2.137,0.527,4.259,0.463,6.813c-0.781,0.423-1.224,0.42-1.666,0.418c-0.003-0.437-0.006-0.874-0.056-1.955
	c-0.669-1.112-1.292-1.582-1.915-2.052c-0.006-0.439-0.012-0.879-0.072-1.96c-0.678-1.109-1.302-1.575-1.926-2.041
	C184.648,149.994,184.641,149.5,184.637,149.253z"/>
<path style="fill:#E2EFD4;" d="M208.666,180.552c0.148,1.915,0.288,3.404,0.676,5.167c0.249,1.976,0.251,3.677,0.009,5.813
	c-0.244,0.434-0.728,0.452-1.059,0.456c-0.772,0.007-1.213,0.01-1.923-0.304c-0.089-5.772,0.091-11.229,0.606-16.685
	c0.78,0,1.226,0,1.672-0.001C208.651,176.707,208.655,178.417,208.666,180.552z"/>
<path style="fill:#D1E6BD;" d="M205.591,156.654c-1.282-1.738-2.606-3.826-3.939-6.287
	C202.945,152.097,204.246,154.201,205.591,156.654z"/>
<path style="fill:#D1E6BD;" d="M200.589,147.661c-1.588-1.102-3.221-2.545-4.896-4.33
	C197.282,144.433,198.913,145.877,200.589,147.661z"/>
<path style="fill:#D6E9C7;" d="M208.895,174.747c-0.694,0.252-1.14,0.252-1.921-0.122c-0.339-1.122-0.343-1.871-0.22-2.827
	c0.331-0.468,0.586-0.665,1.22-0.798c0.77,0.003,1.21,0.006,1.65,0.009C209.463,172.171,209.303,173.333,208.895,174.747z"/>
<path style="fill:#D1E6BD;" d="M208.584,164.662c-0.768-1.173-1.575-2.693-2.164-4.437
	C207.273,161.438,207.909,162.877,208.584,164.662z"/>
<path style="fill:#D1E6BD;" d="M209.629,170.646c-0.445,0.36-0.885,0.357-1.658-0.019c-0.336-1.121-0.339-1.869-0.342-2.616
	c0.135-0.302,0.332-0.556,0.8-0.886C208.969,168.094,209.301,169.189,209.629,170.646z"/>
<path style="fill:#D1E6BD;" d="M188.418,158.165c0.641-0.161,1.083-0.159,1.857-0.152c-0.104,0.63-0.539,1.256-1.275,1.944
	C188.538,159.455,188.378,158.892,188.418,158.165z"/>
<path style="fill:#D1E6BD;" d="M184.701,150.305c0.571,0.155,1.195,0.621,1.87,1.401C186,151.551,185.377,151.083,184.701,150.305z"
	/>
<path style="fill:#D1E6BD;" d="M186.699,154.305c0.57,0.159,1.193,0.629,1.86,1.413
	C187.986,155.561,187.369,155.088,186.699,154.305z"/>
<path style="fill:#D6E9C7;" d="M188.226,192.063c-0.291,4.288-0.934,8.695-1.575,13.857c0,1.197-0.001,1.639-0.264,2.358
	c-1.089,5.625-2.186,10.952-2.591,16.331c-0.135,1.785,1.058,4.571,2.469,5.299c1.242,0.641,4.473-0.369,5.375-1.662
	c3.631-5.207,6.7-10.806,10.109-16.551c0.382-1.093,0.632-1.895,1.217-2.698c0.782,0.002,1.23,0.004,1.677,0.005
	c-1.894,11.216-7.699,20.407-15.385,28.405c-1.495,1.555-5.09,2.489-7.01,1.784c-1.453-0.533-2.544-4.161-2.457-6.359
	c0.209-5.27,0.866-10.581,1.964-15.744C183.532,208.731,185.808,200.479,188.226,192.063z"/>
<path style="fill:#E2EFD4;" d="M204.772,208.711c-0.577,0.29-1.025,0.289-2.027,0.053c0.269-2.746,1.092-5.259,2.172-7.773
	c0.427,0,0.598,0,0.717,0.344c-0.03,1.783-0.008,3.223,0.014,4.663C205.399,206.805,205.151,207.612,204.772,208.711z"/>
<path style="fill:#D1E6BD;" d="M205.888,205.766c-0.262-1.207-0.284-2.647-0.002-4.545c0.798-0.716,1.291-0.973,1.785-1.231
	C207.156,201.837,206.642,203.685,205.888,205.766z"/>
<path style="fill:#D6E9C7;" d="M207.667,199.621c-0.49,0.626-0.983,0.884-1.729,1.257c-0.423,0.114-0.594,0.114-1.023-0.256
	c-0.252-1.109-0.245-1.849,0.068-2.655c0.75-0.704,1.194-1.341,1.885-1.985c0.248-0.007,0.743-0.021,0.759,0.25
	c0.031,0.45,0.045,0.63,0.06,0.809C207.679,197.778,207.671,198.515,207.667,199.621z"/>
<path style="fill:#D1E6BD;" d="M208.039,196.931c-0.366-0.07-0.381-0.25-0.412-1.025c-0.015-1.03-0.014-1.465,0.219-2.084
	c0.413-0.736,0.595-1.287,0.777-1.838c0,0,0.484-0.018,0.725-0.027C209.19,193.572,208.79,195.197,208.039,196.931z"/>
<path style="fill:#E9F3DF;" d="M207.615,194.006c-0.001,0.435-0.003,0.87-0.004,1.63c0,0.325-0.495,0.339-1.053,0.407
	c-0.999,0.709-1.44,1.35-1.881,1.991c-0.007,0.74-0.013,1.48-0.018,2.589c-0.822,2.882-1.645,5.395-2.249,8.142
	c-0.03,1.036-0.28,1.839-0.997,3.007c-2.904,3.822-5.138,7.453-7.88,10.646c-1.084,1.262-3.302,1.551-5.003,2.283
	c-0.63-1.726-1.679-3.422-1.806-5.184c-0.275-3.82-0.078-7.675-0.074-11.515c0.001-0.442,0.002-0.883,0.008-1.656
	c0.977-2.602,2.535-4.802,2.822-7.157c1.56-12.767,2.744-25.579,4.231-38.355c0.208-1.79,1.37-3.47,2.091-5.201
	c1.533,0.988,3.455,1.675,4.509,3.034c1.591,2.054,2.577,4.576,4.088,7.121c0.267,0.658,0.266,1.094,0.26,2.23
	c0.653,1.796,1.311,2.892,1.97,3.987c0.004,0.748,0.008,1.497,0.012,2.619c-0.179,5.831-0.359,11.287-0.239,17.35
	C207.005,193.056,207.31,193.531,207.615,194.006 M201.174,203.82c3.262-10.361,3.329-20.886,1.233-31.422
	c-0.372-1.87-2.153-3.459-3.283-5.178c-1.153,1.622-2.912,3.101-3.335,4.896c-0.943,3.995-1.234,8.145-1.762,12.236
	c-1.14,8.84-2.371,17.671-3.285,26.535c-0.156,1.514,1.074,3.172,1.664,4.763c1.416-0.896,3.301-1.48,4.151-2.754
	C198.284,210.309,199.451,207.349,201.174,203.82z"/>
<path style="fill:#E2EFD4;" d="M301.678,265.189c1.957-2.742,3.459-5.815,5.921-7.32c8.712-5.329,16.048-1.016,16.012,9.151
	c-0.01,2.762,0.148,5.86-0.988,8.217c-3.05,6.328-10.792,6.139-16.371-0.545C304.129,272.149,303.159,268.644,301.678,265.189
	 M313.507,274.788c4.954,0.394,6.69-3.39,6.644-6.844c-0.033-2.471-2.35-5.597-4.548-7.191c-3.193-2.316-5.927,0.179-7.894,2.812
	C305.157,266.982,307.162,271.154,313.507,274.788z"/>
<path style="fill:#B0D79A;" d="M299.464,94.087c0.914,1.634,1.441,3.431,1.66,5.571c-1.779,0.144-3.287,0.088-4.716-0.275
	c-12.383-3.143-23.992-1.867-34.548,5.823c-12.78,9.31-18.801,22.058-16.996,37.557c1.743,14.966,9.928,26.044,23.937,32.456
	c8.633,3.951,17.59,4.173,26.746,2.796c-0.584,1.441-1.169,2.881-1.824,4.653c-11.902,0.882-23.286-0.308-33.462-7.265
	c-24.126-16.496-26.088-48.706-7.371-68.786c10.383-11.139,24.337-14.249,39.391-12.272
	C294.504,94.636,296.809,94.298,299.464,94.087z"/>
<path style="fill:#BBDDAF;" d="M302.833,106.951c0.575,2.415,1.149,4.831,1.33,7.641c-2.11-0.064-3.999-0.204-5.516-1.03
	c-17.928-9.755-42.164,1.791-41.647,25.039c0.463,20.787,18.66,31.255,36.604,26.308c1.945-0.536,4.014-0.62,6.026-0.913
	c-0.581,2.447-1.161,4.895-2.33,7.678c-5.037,0.666-9.496,1.383-13.932,1.259c-18.902-0.526-34.044-15.743-33.445-35.502
	c0.69-22.781,21.566-38.707,43.863-33.178C296.837,105.01,299.819,106.045,302.833,106.951z"/>
<path style="fill:#B4D9A2;" d="M302.796,106.551c-2.977-0.506-5.96-1.541-9.011-2.298c-22.297-5.53-43.173,10.396-43.863,33.178
	c-0.598,19.758,14.543,34.975,33.445,35.502c4.436,0.124,8.896-0.593,13.77-0.917c-0.215,1.763-0.855,3.52-1.543,5.638
	c-9.204,1.738-18.162,1.516-26.795-2.435c-14.01-6.412-22.195-17.49-23.937-32.456c-1.805-15.499,4.216-28.247,16.996-37.557
	c10.556-7.69,22.165-8.966,34.548-5.823c1.43,0.363,2.937,0.419,4.83,0.618C302.026,102.052,302.393,104.102,302.796,106.551z"/>
<path style="fill:#C3E1BD;" d="M299.888,163.722c-2.269,0.568-4.339,0.651-6.283,1.188c-17.944,4.948-36.141-5.52-36.604-26.308
	c-0.518-23.248,23.718-34.794,41.647-25.039c1.517,0.825,3.406,0.966,5.517,1.415c0.427,3.032,0.459,6.075,0.143,9.523
	c-1.766-0.703-3.173-1.827-4.604-2.918c-7.437-5.673-15.418-7.427-24.216-3.366c-7.14,3.295-13.325,12.714-12.732,20.507
	c1.203,15.805,17,26.607,32.559,18.96c2.037-1.001,4.183-1.78,6.279-2.662C301.111,157.83,300.628,160.639,299.888,163.722z"/>
<path style="fill:#C9E4C7;" d="M301.665,154.625c-2.167,1.278-4.314,2.057-6.351,3.058c-15.559,7.647-31.356-3.155-32.559-18.96
	c-0.593-7.793,5.592-17.211,12.732-20.507c8.798-4.061,16.779-2.306,24.216,3.366c1.431,1.092,2.838,2.215,4.601,3.373
	c0.345,3.41,0.345,6.772,0.345,10.933c1.874-0.674,3.13-1.126,4.722-1.698c0.545,1.626,0.754,3.374,1.117,5.469
	C302.205,141.323,303.205,148.548,301.665,154.625 M293.805,123.103c-7.973-5.255-20.691-0.426-23.694,5.732
	c-4.539,9.31-2.485,19.338,5.602,24.183c8.975,5.377,18.946,2.771,24.918-6.513C305.223,139.364,302.473,129.115,293.805,123.103z"
	/>
<path style="fill:#E2EFD4;" d="M206.754,171.798c-0.786-0.888-1.444-1.984-2.095-3.453c0.748-0.363,1.488-0.353,2.599-0.339
	c0.373,0.751,0.376,1.499,0.383,2.62C207.34,171.133,207.086,171.33,206.754,171.798z"/>
<path style="fill:#D6E9C7;" d="M207.846,193.821c-0.536-0.29-0.841-0.765-1.177-1.531c0.41-0.293,0.851-0.296,1.623-0.303
	C208.441,192.535,208.26,193.086,207.846,193.821z"/>
<path style="fill:#E2EFD4;" d="M186.386,208.278c0.259,3.563,0.062,7.417,0.337,11.238c0.127,1.762,1.175,3.458,1.806,5.184
	c1.701-0.732,3.919-1.021,5.003-2.283c2.743-3.194,4.976-6.825,7.748-10.356c-2.942,5.379-6.01,10.978-9.642,16.185
	c-0.902,1.293-4.133,2.303-5.375,1.662c-1.411-0.728-2.603-3.515-2.469-5.299C184.201,219.23,185.297,213.903,186.386,208.278z"/>
<path style="fill:#E2EFD4;" d="M204.984,197.967c0.135-0.574,0.576-1.214,1.327-1.916
	C206.177,196.626,205.734,197.263,204.984,197.967z"/>
<path style="fill:#F1F7EB;" d="M201.011,204.181c-1.56,3.167-2.727,6.128-4.453,8.715c-0.85,1.274-2.734,1.858-4.151,2.754
	c-0.59-1.591-1.82-3.249-1.664-4.763c0.914-8.864,2.145-17.695,3.285-26.535c0.527-4.091,0.819-8.241,1.762-12.236
	c0.424-1.794,2.182-3.274,3.335-4.896c1.13,1.719,2.911,3.309,3.283,5.178C204.503,182.934,204.436,193.459,201.011,204.181z"/>
<path style="fill:#F1F7EB;" d="M313.154,274.66c-5.992-3.505-7.997-7.678-5.444-11.096c1.966-2.632,4.701-5.128,7.894-2.812
	c2.198,1.594,4.515,4.72,4.548,7.191C320.197,271.398,318.461,275.182,313.154,274.66z"/>
<path style="fill:#CDE7D1;" d="M294.131,123.301c8.342,5.815,11.091,16.064,6.499,23.204c-5.972,9.285-15.943,11.891-24.918,6.513
	c-8.086-4.845-10.141-14.873-5.602-24.183C273.113,122.677,285.831,117.848,294.131,123.301 M276.133,146.976
	c1.211,0.849,2.331,1.896,3.651,2.511c4.742,2.209,10.937,0.959,14.583-2.791c2.979-3.064,3.999-9.401,2.173-13.502
	c-2.04-4.582-6.575-7.304-11.987-7.193C274.221,126.213,269.701,136.547,276.133,146.976z"/>
<path style="fill:#CFE9DF;" d="M275.878,146.699c-6.177-10.152-1.657-20.487,8.676-20.698c5.412-0.111,9.947,2.611,11.987,7.193
	c1.826,4.101,0.806,10.437-2.173,13.502c-3.646,3.75-9.841,5-14.583,2.791C278.464,148.872,277.345,147.825,275.878,146.699z"/>
</svg>
